2.2Hzlow3min_grf.mot
version=1
nRows=27
nColumns 19
inDegrees=yes
endheader
time	1_ground_force_vx	1_ground_force_vy	1_ground_force_vz	1_ground_force_px	1_ground_force_py	1_ground_force_pz	1_ground_torque_x	1_ground_torque_y	1_ground_torque_z	2_ground_force_vx	2_ground_force_vy	2_ground_force_vz	2_ground_force_px	2_ground_force_py	2_ground_force_pz	2_ground_torque_x	2_ground_torque_y	2_ground_torque_z
            3.751500	            0.000440	           -0.541387	            0.135249	           -0.233013	            0.005581	           -0.255695	            0.144499	           -0.147539	           -0.076165	           -0.281058	           -0.001350	            0.093976	           -0.232311	            0.006130	           -0.833667	           -0.168932	           -0.038421	           -0.000063
            3.752000	           -0.183030	           -0.000625	            0.138023	           -0.233013	            0.005581	           -0.255695	            0.125168	           -0.119575	           -0.159027	           -0.235558	            0.367283	            0.048342	           -0.232311	            0.006130	           -0.833667	           -0.074878	           -0.066642	            0.056346
            3.752500	            0.137301	            0.000420	           -0.092053	           -0.233013	            0.005581	           -0.255695	            0.078757	           -0.128849	           -0.107672	           -0.045582	           -0.367964	           -0.142079	           -0.232311	            0.006130	           -0.833667	           -0.168805	           -0.066981	            0.056386
            3.753000	            0.137415	            0.000223	           -0.046197	           -0.233013	            0.005581	           -0.255695	            0.020640	            0.046444	           -0.031584	            0.186694	            0.185160	           -0.093279	           -0.232311	            0.006130	           -0.833667	           -0.093834	           -0.019446	            0.056523
            3.753500	           -0.137559	           -1.081227	           -0.096008	           -0.233013	            0.005581	           -0.255695	            0.154523	            0.065070	           -0.099921	            0.047473	           -0.183644	           -0.094533	           -0.232311	            0.006130	           -0.833667	           -0.149984	           -0.085550	           -0.019090
            3.754000	           -0.000944	            0.181839	           -0.366074	           -0.233013	            0.005581	           -0.255695	            0.184340	           -0.027466	           -0.056976	           -0.277838	           -0.921254	           -0.143950	           -0.232311	            0.006130	           -0.833667	           -0.000068	            0.018905	            0.000067
            3.754500	            0.183534	            0.360174	            0.092803	           -0.233013	            0.005581	           -0.255695	            0.089661	           -0.092168	           -0.030408	           -0.235037	            0.184307	           -0.280812	           -0.232311	            0.006130	           -0.833667	           -0.150120	           -0.047739	           -0.018955
            3.755000	            0.045747	           -0.720661	           -0.094917	           -0.233013	            0.005581	           -0.255695	            0.173358	           -0.166330	            0.000837	           -0.045541	           -0.368298	           -0.048222	           -0.232311	            0.006130	           -0.833667	           -0.093756	           -0.047603	           -0.000129
            3.755500	            0.046460	            0.359361	            0.276568	           -0.233013	            0.005581	           -0.255695	            0.213192	           -0.138337	           -0.055575	           -0.328655	            0.183299	           -0.093060	           -0.232311	            0.006130	           -0.833667	           -0.187676	           -0.038825	            0.094196
            3.756000	            0.275318	           -0.180606	            0.090256	           -0.233013	            0.005581	           -0.255695	            0.127409	           -0.017929	           -0.082649	            0.048220	           -0.368462	            0.092522	           -0.232311	            0.006130	           -0.833667	           -0.168923	           -0.038488	            0.018787
            3.756500	            0.412245	            0.000670	           -0.138592	           -0.233013	            0.005581	           -0.255695	            0.137164	            0.055914	           -0.038903	            0.092371	            0.368635	            0.001274	           -0.232311	            0.006130	           -0.833667	           -0.262835	           -0.029778	            0.131962
            3.757000	           -0.000114	            0.000197	           -0.045856	           -0.233013	            0.005581	           -0.255695	            0.133116	            0.055888	           -0.094081	           -0.138618	           -0.552450	           -0.142696	           -0.232311	            0.006130	           -0.833667	           -0.112551	           -0.038419	            0.056464
            3.757500	           -0.000195	           -0.179872	           -0.092485	           -0.233013	            0.005581	           -0.255695	            0.041387	           -0.018160	           -0.075367	           -0.045644	           -0.367462	           -0.282863	           -0.232311	            0.006130	           -0.833667	           -0.150104	           -0.047873	            0.018745
            3.758000	           -0.046152	           -0.179685	           -0.138227	           -0.233013	            0.005581	           -0.255695	            0.174806	           -0.110671	           -0.059251	           -0.238258	            1.104212	           -0.042886	           -0.232311	            0.006130	           -0.833667	           -0.037572	            0.009048	            0.075451
            3.758500	            0.091719	           -0.180248	           -0.001001	           -0.233013	            0.005581	           -0.255695	            0.225134	           -0.128838	           -0.109984	           -0.186173	           -0.368136	           -0.235875	           -0.232311	            0.006130	           -0.833667	           -0.056254	           -0.028562	           -0.000077
            3.759000	            0.092043	            0.540028	            0.185515	           -0.233013	            0.005581	           -0.255695	            0.066708	           -0.064239	           -0.090541	           -0.235640	            0.367953	           -0.139371	           -0.232311	            0.006130	           -0.833667	           -0.112371	           -0.094934	           -0.000289
            3.759500	           -0.045418	           -1.081996	            0.087188	           -0.233013	            0.005581	           -0.255695	            0.146633	           -0.017912	           -0.133944	           -0.236346	            0.552436	           -0.232570	           -0.232311	            0.006130	           -0.833667	           -0.074937	           -0.056987	           -0.000170
            3.760000	            0.503344	            0.722536	           -0.319151	           -0.233013	            0.005581	           -0.255695	            0.144343	            0.065516	           -0.110188	           -0.002741	            0.737263	           -0.185084	           -0.232311	            0.006130	           -0.833667	           -0.168805	           -0.066981	            0.056386
            3.760500	            0.045795	           -0.360326	           -0.047516	           -0.233013	            0.005581	           -0.255695	            0.095814	            0.028171	           -0.092140	            0.044815	            0.552949	           -0.091905	           -0.232311	            0.006130	           -0.833667	           -0.131327	           -0.047738	           -0.000113
            3.761000	            0.091312	            0.180873	           -0.137022	           -0.233013	            0.005581	           -0.255695	            0.212026	           -0.036492	           -0.090770	           -0.044315	           -0.735758	           -0.284177	           -0.232311	            0.006130	           -0.833667	           -0.150240	           -0.010063	            0.018880
            3.761500	           -0.000422	           -0.179479	           -0.184197	           -0.233013	            0.005581	           -0.255695	            0.176638	           -0.175113	           -0.113972	            0.142502	           -0.551603	           -0.095887	           -0.232311	            0.006130	           -0.833667	           -0.131454	           -0.019179	           -0.056562
            3.762000	           -0.183453	           -0.180104	           -0.046174	           -0.233013	            0.005581	           -0.255695	            0.170749	           -0.156707	           -0.121697	           -0.236387	            0.552771	           -0.326426	           -0.232311	            0.006130	           -0.833667	           -0.187709	           -0.038556	            0.018795
            3.762500	           -0.092225	            1.082166	           -0.132702	           -0.233013	            0.005581	           -0.255695	            0.117530	           -0.091975	           -0.117423	           -0.047515	            0.183979	            0.000677	           -0.232311	            0.006130	           -0.833667	           -0.168966	           -0.028969	           -0.000029
            3.763000	            0.045924	            0.180078	            0.046515	           -0.233013	            0.005581	           -0.255695	            0.072782	            0.037413	           -0.092062	           -0.092432	           -0.368133	           -0.142059	           -0.232311	            0.006130	           -0.833667	           -0.225161	           -0.067185	            0.056410
            3.763500	            0.091344	            0.000608	           -0.137795	           -0.233013	            0.005581	           -0.255695	            0.137042	            0.028197	           -0.090300	            0.141194	           -0.183473	           -0.047645	           -0.232311	            0.006130	           -0.833667	           -0.168949	           -0.029103	            0.037671
            3.764000	            0.503476	            0.001474	           -0.322243	           -0.233013	            0.005581	           -0.255695	            0.107089	           -0.008116	           -0.185578	            0.050858	           -1.104888	            0.042966	           -0.232311	            0.006130	           -0.833667	           -0.112532	           -0.056921	           -0.056705
            3.764500	            0.183159	            0.541029	           -0.043992	           -0.233013	            0.005581	           -0.255695	            0.114140	           -0.110574	           -0.049352	           -0.091809	           -0.551946	           -0.236572	           -0.232311	            0.006130	           -0.833667	           -0.056398	            0.009316	           -0.018793
